#!OML:ASF \\sashay\E\basketball\basketball\Project 1\Capture day 1\Session 1\Subject.ASF
:FULLY-SPECIFIED
:DEGREES
524
root -4.4254 15.7464 -2.60714 186.316 -180.428 -181.871
lowerback 25.9825 0.678239 -4.08558
upperback 9.30956 0.369477 7.2655
thorax -4.06872 -0.00124581 10.396
lowerneck 13.5461 -20.3984 -14.8729
upperneck -29.7476 -23.8021 41.515
head -2.7734 -15.6003 16.979
rclavicle -2.22639e-014 1.03368e-014
rhumerus -6.79325 37.7796 -91.6283
rradius 72.5464
rwrist -26.3657
rhand -11.2204 34.0739
rfingers 7.12502
rthumb 14.8082 4.62301
lclavicle -2.22639e-014 1.03368e-014
lhumerus -31.5601 -3.86103 100.877
lradius 95.6781
lwrist 36.2687
lhand -23.67 25.6516
lfingers 7.12502
lthumb 2.79602 55.613
rfemur -31.1804 -3.74095 7.93903
rtibia 49.7403
rfoot -6.17664 -9.18605
rtoes -50.7836
lfemur -24.4565 -1.75995 -13.6701
ltibia 37.4887
lfoot -11.1694 -19.513
ltoes 11.4256
525
root -4.43596 15.7475 -2.53835 186.307 -181.297 -181.886
lowerback 26.0191 0.612413 -4.0819
upperback 9.45839 0.309431 7.57573
thorax -3.90263 -0.0458438 10.7756
lowerneck 13.5643 -19.7178 -17.0504
upperneck -29.5955 -23.2767 42.883
head -2.2179 -15.3334 17.8643
rclavicle -2.62396e-014 -6.52014e-014
rhumerus -6.24893 38.0881 -91.2072
rradius 70.9982
rwrist -26.6159
rhand -10.4396 33.4816
rfingers 7.12502
rthumb 15.5603 4.08758
lclavicle -2.62396e-014 -6.52014e-014
lhumerus -31.8598 -3.24083 101.515
lradius 94.2927
lwrist 36.8604
lhand -24.2123 24.9303
lfingers 7.12502
lthumb 2.27232 54.898
rfemur -31.8209 -3.45298 8.07743
rtibia 47.6469
rfoot -6.41915 -8.58647
rtoes -50.9644
lfemur -24.4881 -1.51153 -13.6441
ltibia 37.7076
lfoot -10.6589 -20.3287
ltoes 13.6266
526
root -4.45083 15.7376 -2.46787 186.167 -182.365 -181.972
lowerback 26.2312 0.472193 -3.94177
upperback 9.59464 0.184325 7.82912
thorax -3.82238 -0.115485 11.0331
lowerneck 13.4965 -19.4189 -17.825
upperneck -29.6041 -22.9905 43.3313
head -2.06423 -15.1821 18.2138
rclavicle -5.96354e-014 3.49861e-014
rhumerus -5.81198 38.2112 -90.9578
rradius 69.7138
rwrist -27.3497
rhand -8.95789 32.4765
rfingers 7.12502
rthumb 16.987 3.19927
lclavicle -5.96354e-014 3.49861e-014
lhumerus -32.1648 -2.64956 101.988
lradius 92.8816
lwrist 37.4113
lhand -24.994 24.2296
lfingers 7.12502
lthumb 1.51737 54.2039
rfemur -32.2688 -3.24074 8.23592
rtibia 45.5497
rfoot -6.3117 -7.91273
rtoes -51.0885
lfemur -24.5817 -0.266853 -13.666
ltibia 38.1347
lfoot -10.1742 -22.0155
ltoes 13.8613
527
root -4.46327 15.7217 -2.39929 185.85 -183.708 -182.031
lowerback 26.7802 0.19754 -3.57852
upperback 9.63825 -0.0578082 7.96571
thorax -3.98704 -0.222496 11.0694
lowerneck 13.5024 -19.3867 -17.6451
upperneck -29.6807 -22.8808 43.2115
head -2.17798 -15.1302 18.1951
rclavicle -3.97569e-015 -1.90833e-014
rhumerus -5.66042 38.1004 -91.0309
rradius 68.493
rwrist -27.4283
rhand -7.36364 31.5187
rfingers 7.12502
rthumb 18.5211 2.38041
lclavicle -3.97569e-015 -1.90833e-014
lhumerus -32.5779 -2.43825 102.137
lradius 91.601
lwrist 38.4333
lhand -25.9042 23.9299
lfingers 7.12502
lthumb 0.638264 53.9087
rfemur -32.4123 -2.97482 8.20652
rtibia 43.4855
rfoot -6.06656 -7.3684
rtoes -50.9912
lfemur -24.6268 0.220957 -13.7242
ltibia 38.7704
lfoot -10.3148 -22.9404
ltoes 12.1363
528
root -4.47532 15.7096 -2.33052 185.602 -185.033 -181.915
lowerback 27.26 -0.100961 -3.39291
upperback 9.66427 -0.367778 8.1111
thorax -4.11852 -0.366487 11.2474
lowerneck 13.4558 -19.3819 -17.648
upperneck -29.8582 -22.8316 43.1778
head -2.2403 -15.1068 18.2109
rclavicle 5.00937e-014 -5.00937e-014
rhumerus -5.41313 38.186 -91.043
rradius 67.0057
rwrist -26.9178
rhand -6.07995 30.9036
rfingers 7.12502
rthumb 19.7555 1.88749
lclavicle 5.00937e-014 -5.00937e-014
lhumerus -32.8732 -2.10824 102.35
lradius 90.3192
lwrist 39.4357
lhand -26.1358 23.9071
lfingers 7.12502
lthumb 0.414538 53.8864
rfemur -32.548 -2.36483 7.80663
rtibia 41.5252
rfoot -5.77242 -6.98073
rtoes -50.849
lfemur -24.8468 0.573535 -13.9477
ltibia 39.6061
lfoot -10.0348 -23.7871
ltoes 12.4199
529
root -4.49328 15.6964 -2.26 185.493 -186.33 -182
lowerback 27.5175 -0.386997 -2.98485
upperback 9.63898 -0.596029 8.32692
thorax -4.22324 -0.466578 11.3408
lowerneck 13.6724 -19.3285 -17.9696
upperneck -30.2077 -22.7652 43.4006
head -2.2925 -15.1093 18.4446
rclavicle 1.35174e-014 1.1609e-013
rhumerus -5.2201 38.3173 -90.9493
rradius 65.5218
rwrist -26.451
rhand -5.30934 30.3618
rfingers 7.12502
rthumb 20.4962 1.42367
lclavicle 1.35174e-014 1.1609e-013
lhumerus -33.2168 -1.65097 102.736
lradius 89.0944
lwrist 40.2394
lhand -25.4597 24.1157
lfingers 7.12502
lthumb 1.06754 54.0928
rfemur -32.8353 -1.60696 7.54769
rtibia 39.6623
rfoot -5.00513 -6.60919
rtoes -51.4642
lfemur -25.3631 1.29217 -13.9824
ltibia 40.6627
lfoot -9.61865 -24.6106
ltoes 13.3857
530
root -4.51878 15.6675 -2.18484 185.289 -187.678 -182.278
lowerback 27.8054 -0.627584 -2.41915
upperback 9.56882 -0.706935 8.67658
thorax -4.41928 -0.502889 11.4678
lowerneck 14.0852 -19.382 -18.2289
upperneck -30.6827 -22.8469 43.4536
head -2.4163 -15.1843 18.6059
rclavicle -9.54166e-015 0
rhumerus -5.31891 38.2424 -90.7674
rradius 64.3608
rwrist -26.1632
rhand -4.4766 29.6433
rfingers 7.12502
rthumb 21.2962 0.793374
lclavicle -9.54166e-015 0
lhumerus -33.728 -1.50376 103.123
lradius 88.0368
lwrist 41.3159
lhand -24.5425 24.4489
lfingers 7.12502
lthumb 1.95342 54.4197
rfemur -33.056 -0.910978 7.43288
rtibia 37.9374
rfoot -4.13585 -6.05685
rtoes -52.4029
lfemur -25.926 2.42915 -13.959
ltibia 41.9748
lfoot -9.53516 -25.1167
ltoes 13.6177
531
root -4.54383 15.6313 -2.10505 184.965 -188.947 -182.472
lowerback 28.0804 -0.8505 -2.00686
upperback 9.60406 -0.837467 9.01011
thorax -4.48082 -0.560692 11.6744
lowerneck 14.1448 -19.7353 -17.2715
upperneck -31.5275 -23.0056 42.7567
head -2.93206 -15.2922 18.2892
rclavicle -7.95139e-014 4.29375e-014
rhumerus -5.24682 38.042 -90.6513
rradius 63.2254
rwrist -25.9556
rhand -3.31321 28.9595
rfingers 7.12502
rthumb 22.4133 0.239906
lclavicle -7.95139e-014 4.29375e-014
lhumerus -33.9505 -1.59897 103.321
lradius 86.8521
lwrist 42.5421
lhand -23.957 24.6485
lfingers 7.12502
lthumb 2.51888 54.6134
rfemur -33.106 -0.0681775 7.09289
rtibia 36.4125
rfoot -3.52758 -5.61552
rtoes -52.7322
lfemur -26.4572 3.77021 -14.1114
ltibia 43.5585
lfoot -8.75358 -25.4968
ltoes 16.6058
532
root -4.56337 15.5948 -2.02808 184.684 -190.172 -182.483
lowerback 28.2824 -1.08858 -1.61277
upperback 9.65239 -1.03488 9.50656
thorax -4.42136 -0.681966 11.3118
lowerneck 12.7832 -20.8632 -14.6975
upperneck -31.3643 -24.0951 40.757
head -3.19892 -15.6854 16.6639
rclavicle 8.42847e-014 -4.92986e-014
rhumerus -4.9428 37.7205 -90.7162
rradius 61.9612
rwrist -25.5793
rhand -2.6791 28.3587
rfingers 7.12502
rthumb 23.0219 -0.286356
lclavicle 8.42847e-014 -4.92986e-014
lhumerus -33.757 -1.68461 103.46
lradius 85.3647
lwrist 43.4826
lhand -23.8643 24.5111
lfingers 7.12502
lthumb 2.60842 54.4749
rfemur -33.1536 1.04794 6.38667
rtibia 35.1605
rfoot -3.18737 -5.5052
rtoes -52.2551
lfemur -27.1751 5.23136 -14.53
ltibia 45.4222
lfoot -7.768 -25.5271
ltoes 19.966
533
root -4.58236 15.5451 -1.9535 184.459 -191.474 -182.307
lowerback 28.4332 -1.3441 -1.2406
upperback 9.64883 -1.23448 9.57124
thorax -4.45331 -0.768936 11.2348
lowerneck 12.7918 -20.9304 -15.175
upperneck -31.3504 -24.2602 41.0957
head -2.99256 -15.7685 16.7693
rclavicle 3.02153e-014 8.26944e-014
rhumerus -4.80987 37.4577 -90.7895
rradius 60.8134
rwrist -25.219
rhand -2.5749 27.894
rfingers 7.12502
rthumb 23.1219 -0.73849
lclavicle 3.02153e-014 8.26944e-014
lhumerus -33.7129 -1.7514 103.638
lradius 84.03
lwrist 44.1743
lhand -24.0666 24.3839
lfingers 7.12502
lthumb 2.41304 54.35
rfemur -33.2722 1.9279 5.50174
rtibia 34.1978
rfoot -2.95195 -5.38722
rtoes -52.0724
lfemur -28.0576 6.87578 -15.3125
ltibia 47.5456
lfoot -8.16779 -24.9374
ltoes 18.4608
